HIERARCHY
ROOT Hips
{
    OFFSET   0.000000   0.000000   0.000000
    CHANNELS 6 Xposition Yposition Zposition Zrotation Xrotation Yrotation
    JOINT Chest
    {
        OFFSET   0.000000   8.007240   0.000000
        CHANNELS 3 Zrotation Xrotation Yrotation
        JOINT Chest2
        {
            OFFSET   0.000000  22.077100   0.000000
            CHANNELS 3 Zrotation Xrotation Yrotation
            JOINT Neck
            {
                OFFSET   0.000000  23.254800   0.000000
                CHANNELS 3 Zrotation Xrotation Yrotation
                JOINT Head
                {
                    OFFSET   0.000000  14.370000   1.956600
                    CHANNELS 3 Zrotation Xrotation Yrotation
                    End Site
                    {
                        OFFSET   0.000000  19.566000   0.000000
                    }
                }
            }
            JOINT LeftCollar
            {
                OFFSET   3.911900  19.017000  -0.467064
                CHANNELS 3 Zrotation Xrotation Yrotation
                JOINT LeftShoulder
                {
                    OFFSET  10.383700   0.000000   0.000000
                    CHANNELS 3 Zrotation Xrotation Yrotation
                    JOINT LeftElbow
                    {
                        OFFSET  26.662100   0.001476   0.000517
                        CHANNELS 3 Zrotation Xrotation Yrotation
                        JOINT LeftWrist
                        {
                            OFFSET  28.869000  -0.000025  -0.000106
                            CHANNELS 3 Zrotation Xrotation Yrotation
                            JOINT LeftFinger0
                            {
                                OFFSET   2.044660  -2.323460   3.252850
                                CHANNELS 3 Zrotation Xrotation Yrotation
                                JOINT LeftFinger01
                                {
                                    OFFSET   3.088130   0.000000   0.000000
                                    CHANNELS 3 Zrotation Xrotation Yrotation
                                    JOINT LeftFinger02
                                    {
                                        OFFSET   2.639460   0.000000   0.000000
                                        CHANNELS 3 Zrotation Xrotation Yrotation
                                        End Site
                                        {
                                            OFFSET   2.582190   0.000000   0.000000
                                        }
                                    }
                                }
                            }
                            JOINT LeftFinger1
                            {
                                OFFSET   8.364480   0.000000   3.252850
                                CHANNELS 3 Zrotation Xrotation Yrotation
                                JOINT LeftFinger11
                                {
                                    OFFSET   4.646930   0.000000   0.000000
                                    CHANNELS 3 Zrotation Xrotation Yrotation
                                    JOINT LeftFinger12
                                    {
                                        OFFSET   2.323460   0.000000   0.000000
                                        CHANNELS 3 Zrotation Xrotation Yrotation
                                        End Site
                                        {
                                            OFFSET   2.273050   0.000000   0.000000
                                        }
                                    }
                                }
                            }
                            JOINT LeftFinger2
                            {
                                OFFSET   8.364490   0.000015   1.078090
                                CHANNELS 3 Zrotation Xrotation Yrotation
                                JOINT LeftFinger21
                                {
                                    OFFSET   5.111620   0.000000   0.000000
                                    CHANNELS 3 Zrotation Xrotation Yrotation
                                    JOINT LeftFinger22
                                    {
                                        OFFSET   2.788160   0.000016   0.000000
                                        CHANNELS 3 Zrotation Xrotation Yrotation
                                        End Site
                                        {
                                            OFFSET   2.727660   0.000000   0.000000
                                        }
                                    }
                                }
                            }
                            JOINT LeftFinger3
                            {
                                OFFSET   7.899780   0.000017  -1.078090
                                CHANNELS 3 Zrotation Xrotation Yrotation
                                JOINT LeftFinger31
                                {
                                    OFFSET   4.646930   0.000000   0.000000
                                    CHANNELS 3 Zrotation Xrotation Yrotation
                                    JOINT LeftFinger32
                                    {
                                        OFFSET   2.323470   0.000000   0.000000
                                        CHANNELS 3 Zrotation Xrotation Yrotation
                                        End Site
                                        {
                                            OFFSET   2.273050   0.000000   0.000000
                                        }
                                    }
                                }
                            }
                            JOINT LeftFinger4
                            {
                                OFFSET   7.435090   0.000000  -3.252850
                                CHANNELS 3 Zrotation Xrotation Yrotation
                                JOINT LeftFinger41
                                {
                                    OFFSET   3.717550   0.000000   0.000000
                                    CHANNELS 3 Zrotation Xrotation Yrotation
                                    JOINT LeftFinger42
                                    {
                                        OFFSET   1.858770   0.000000   0.000000
                                        CHANNELS 3 Zrotation Xrotation Yrotation
                                        End Site
                                        {
                                            OFFSET   1.818440   0.000000   0.000000
                                        }
                                    }
                                }
                            }
                        }
                    }
                }
            }
            JOINT RightCollar
            {
                OFFSET  -3.911900  19.017000  -0.467063
                CHANNELS 3 Zrotation Xrotation Yrotation
                JOINT RightShoulder
                {
                    OFFSET -10.383700   0.000019   0.000000
                    CHANNELS 3 Zrotation Xrotation Yrotation
                    JOINT RightElbow
                    {
                        OFFSET -26.662100   0.001175   0.000102
                        CHANNELS 3 Zrotation Xrotation Yrotation
                        JOINT RightWrist
                        {
                            OFFSET -28.869000   0.000016  -0.000079
                            CHANNELS 3 Zrotation Xrotation Yrotation
                            JOINT RightFinger0
                            {
                                OFFSET  -2.044660  -2.323490   3.252850
                                CHANNELS 3 Zrotation Xrotation Yrotation
                                JOINT RightFinger01
                                {
                                    OFFSET  -3.088140   0.000000   0.000000
                                    CHANNELS 3 Zrotation Xrotation Yrotation
                                    JOINT RightFinger02
                                    {
                                        OFFSET  -2.639460   0.000000   0.000000
                                        CHANNELS 3 Zrotation Xrotation Yrotation
                                        End Site
                                        {
                                            OFFSET  -2.582190   0.000000   0.000000
                                        }
                                    }
                                }
                            }
                            JOINT RightFinger1
                            {
                                OFFSET  -8.364480   0.000000   3.252850
                                CHANNELS 3 Zrotation Xrotation Yrotation
                                JOINT RightFinger11
                                {
                                    OFFSET  -4.646930   0.000000   0.000000
                                    CHANNELS 3 Zrotation Xrotation Yrotation
                                    JOINT RightFinger12
                                    {
                                        OFFSET  -2.323470   0.000000   0.000000
                                        CHANNELS 3 Zrotation Xrotation Yrotation
                                        End Site
                                        {
                                            OFFSET  -2.273050   0.000000   0.000000
                                        }
                                    }
                                }
                            }
                            JOINT RightFinger2
                            {
                                OFFSET  -8.364480   0.000000   1.078090
                                CHANNELS 3 Zrotation Xrotation Yrotation
                                JOINT RightFinger21
                                {
                                    OFFSET  -5.111620   0.000000   0.000000
                                    CHANNELS 3 Zrotation Xrotation Yrotation
                                    JOINT RightFinger22
                                    {
                                        OFFSET  -2.788160   0.000000   0.000000
                                        CHANNELS 3 Zrotation Xrotation Yrotation
                                        End Site
                                        {
                                            OFFSET  -2.727660   0.000000   0.000000
                                        }
                                    }
                                }
                            }
                            JOINT RightFinger3
                            {
                                OFFSET  -7.899780   0.000000  -1.078090
                                CHANNELS 3 Zrotation Xrotation Yrotation
                                JOINT RightFinger31
                                {
                                    OFFSET  -4.646930   0.000000   0.000000
                                    CHANNELS 3 Zrotation Xrotation Yrotation
                                    JOINT RightFinger32
                                    {
                                        OFFSET  -2.323470   0.000000   0.000000
                                        CHANNELS 3 Zrotation Xrotation Yrotation
                                        End Site
                                        {
                                            OFFSET  -2.273050   0.000000   0.000000
                                        }
                                    }
                                }
                            }
                            JOINT RightFinger4
                            {
                                OFFSET  -7.435090   0.000000  -3.252850
                                CHANNELS 3 Zrotation Xrotation Yrotation
                                JOINT RightFinger41
                                {
                                    OFFSET  -3.717550   0.000000   0.000000
                                    CHANNELS 3 Zrotation Xrotation Yrotation
                                    JOINT RightFinger42
                                    {
                                        OFFSET  -1.858770   0.000000   0.000000
                                        CHANNELS 3 Zrotation Xrotation Yrotation
                                        End Site
                                        {
                                            OFFSET  -1.818440   0.000000   0.000000
                                        }
                                    }
                                }
                            }
                        }
                    }
                }
            }
        }
    }
    JOINT LeftHip
    {
        OFFSET   9.783040   0.000000   0.000000
        CHANNELS 3 Zrotation Xrotation Yrotation
        JOINT LeftKnee
        {
            OFFSET   0.000032 -41.789100  -0.002222
            CHANNELS 3 Zrotation Xrotation Yrotation
            JOINT LeftAnkle
            {
                OFFSET   0.000087 -41.133200  -0.000135
                CHANNELS 3 Zrotation Xrotation Yrotation
                JOINT LeftToe
                {
                    OFFSET   0.000000  -6.358960  14.674500
                    CHANNELS 3 Zrotation Xrotation Yrotation
                    End Site
                    {
                        OFFSET   0.000000   0.000000   3.913200
                    }
                }
            }
        }
    }
    JOINT RightHip
    {
        OFFSET  -9.783040   0.000000   0.000000
        CHANNELS 3 Zrotation Xrotation Yrotation
        JOINT RightKnee
        {
            OFFSET   0.000047 -41.789100  -0.000896
            CHANNELS 3 Zrotation Xrotation Yrotation
            JOINT RightAnkle
            {
                OFFSET  -0.000117 -41.133300  -0.000248
                CHANNELS 3 Zrotation Xrotation Yrotation
                JOINT RightToe
                {
                    OFFSET   0.000000  -6.358970  14.674500
                    CHANNELS 3 Zrotation Xrotation Yrotation
                    End Site
                    {
                        OFFSET   0.000000   0.000000   3.913200
                    }
                }
            }
        }
    }
}
MOTION
Frames: 5
Frame Time:   0.016667
  3.739700  88.461900   2.799490  -5.344470 -23.209300  -8.718510   2.026320  11.994300  -0.740838   4.362960  23.952200  -1.994040  -0.561232  -3.210300  -0.032019  -0.930157  -6.508130  14.266200 -14.110600 -13.796300  -1.161050 -56.283400   1.230830 -62.665900   3.731450 -29.354700 -17.236800  11.186600 -53.137700  -3.103510  37.993500  20.333200 -60.211500 -12.297700   0.006872   0.001552  -1.148840  -0.001611   0.001532 -19.208700   5.484410 -15.338000 -16.320800   0.000124   0.003597 -11.424500   0.000198   0.003189 -20.558100   3.002530  -7.951970 -20.766900   0.000920  -0.000222 -13.830700   0.000454   0.002443 -21.486300  -4.422340  11.091200 -21.916300  -0.003525  -0.002710 -14.596300  -0.001773  -0.003644 -16.711700  -3.475440  11.419600 -25.589500   0.005968  -0.002651 -17.042700   0.000204  -0.001829   7.150530 -13.792000  17.925600  46.242800 -12.981200  55.657000 -13.593600 -18.842100  10.662900 -13.450500 -66.072500  21.039200 -51.698300  36.579000  72.800200  -4.546880  -0.000789  -0.000024  -7.273460  -0.000866   0.000929  15.597100   5.712950  19.625800  13.570500   0.002429  -0.005006   9.499290   0.000804  -0.004039  16.885600   4.555930  14.664000  17.472200   0.004093  -0.003838  11.636500  -0.004337  -0.002759  16.681400   4.176460  13.660000  17.181800  -0.000330  -0.004677  11.443100   0.002815  -0.004321  15.872000   2.290290   8.000450  24.048500   0.005463  -0.000981  16.016100   0.002731  -0.001572  -0.918422  26.299500   5.404430   0.925916   1.396380  10.225500   1.334820  -4.012140   4.678260  -0.000000   0.000000  -0.000000  -0.921674  10.134700  -3.504300  -1.524200  25.929800  -1.817750   1.740800 -11.644400   3.054250   0.000000   0.000000   0.000000
  3.722830  88.466800   2.842880  -5.355710 -23.137700  -8.761190   2.030150  11.979200  -0.760943   4.375510  23.921200  -2.035730  -0.608835  -3.226030  -0.034260  -1.009180  -6.539500  14.386300 -13.987000 -13.690000  -1.026840 -56.407900   0.655602 -62.443200   3.699450 -29.273000 -17.207100  11.291700 -53.112100  -3.006240  37.967100  20.251200 -60.140200 -12.342800   0.006865   0.001600  -1.171390  -0.001611   0.001558 -19.233700   5.500600 -15.363100 -16.344200   0.000098   0.003554 -11.440900   0.000186   0.003166 -20.611400   3.016010  -7.964540 -20.821400   0.000904  -0.000267 -13.867000   0.000471   0.002440 -21.563600  -4.449720  11.106100 -21.996400  -0.003678  -0.002848 -14.649600  -0.001805  -0.003710 -16.730800  -3.487690  11.440900 -25.620400   0.005962  -0.002679 -17.063200   0.000217  -0.001875   7.078580 -13.734600  17.812700  46.249800 -13.400500  55.372800 -13.527800 -18.843600  10.653400 -13.485900 -66.061200  21.058900 -51.781400  36.604000  72.769300  -4.555650  -0.000806   0.000000  -7.277850  -0.000876   0.000946  15.536400   5.694880  19.643400  13.518900   0.002454  -0.005007   9.463200   0.000826  -0.004039  16.843900   4.548510  14.678100  17.430100   0.004181  -0.003840  11.608400  -0.004361  -0.002760  16.635200   4.169960  13.678200  17.135500  -0.000323  -0.004677  11.412300   0.002868  -0.004276  15.817300   2.288380   8.024450  23.966800   0.005555  -0.000981  15.961800   0.002785  -0.001587  -0.901720  26.272700   5.403350   0.917858   1.379630  10.221600   1.328020  -4.034430   4.722310  -0.000000   0.000000   0.000000  -0.904388  10.100200  -3.505310  -1.535310  25.906800  -1.773810   1.739510 -11.658400   3.045650  -0.000000   0.000000   0.000000
  3.704610  88.471700   2.884800  -5.374550 -23.048600  -8.813380   2.033060  11.959300  -0.774867   4.385270  23.880800  -2.064050  -0.647479  -3.241890  -0.034904  -1.073260  -6.571320  14.490200 -13.875400 -13.570900  -0.930499 -56.597800   0.053849 -62.220800   3.706100 -29.151400 -17.197000  11.395400 -53.170200  -2.905140  37.943700  20.222400 -60.123400 -12.384900   0.006885   0.001594  -1.192470  -0.001607   0.001583 -19.252100   5.513440 -15.377600 -16.361100   0.000040   0.003513 -11.452700   0.000196   0.003161 -20.652100   3.023180  -7.967400 -20.862700   0.000878  -0.000303 -13.894500   0.000484   0.002440 -21.662600  -4.495040  11.148500 -22.101700  -0.003813  -0.002990 -14.719700  -0.001838  -0.003774 -16.772500  -3.514850  11.491400 -25.689500   0.005966  -0.002702 -17.109200   0.000225  -0.001912   6.978250 -13.671800  17.656000  46.304400 -13.803400  55.111800 -13.535400 -18.812700  10.578600 -13.563500 -66.077200  21.011300 -51.834400  36.649000  72.810600  -4.500100  -0.000818   0.000000  -7.250070  -0.000888   0.000943  15.546400   5.698930  19.642000  13.526800   0.002483  -0.005010   9.468750   0.000847  -0.004038  16.851600   4.549860  14.675600  17.437900   0.004268  -0.003840  11.613600  -0.004388  -0.002758  16.636500   4.170160  13.677600  17.136900  -0.000328  -0.004675  11.413200   0.002922  -0.004233  15.809100   2.286630   8.028070  23.954200   0.005654  -0.000977  15.953400   0.002836  -0.001590  -0.880460  26.249400   5.408770   0.911577   1.343480  10.211000   1.321260  -4.059600   4.772970  -0.000000   0.000000   0.000000  -0.879603  10.067900  -3.508960  -1.546710  25.861400  -1.717560   1.737370 -11.667900   3.033850   0.000000   0.000000  -0.000000
  3.683660  88.476700   2.925420  -5.397070 -22.951600  -8.872060   2.035160  11.938700  -0.780924   4.388670  23.839300  -2.075980  -0.679172  -3.256820  -0.035106  -1.125750  -6.601290  14.572900 -13.748500 -13.443200  -0.832248 -56.803200  -0.542558 -61.993400   3.723370 -29.031900 -17.211700  11.469500 -53.233000  -2.826630  37.942300  20.213100 -60.128900 -12.423200   0.006904   0.001583  -1.211620  -0.001603   0.001607 -19.280800   5.523310 -15.384300 -16.386000   0.000000   0.003474 -11.470200   0.000206   0.003158 -20.692000   3.031160  -7.970270 -20.903300   0.000855  -0.000341 -13.921500   0.000495   0.002440 -21.763300  -4.525800  11.179500 -22.206500  -0.003942  -0.003138 -14.789500  -0.001871  -0.003840 -16.816000  -3.534120  11.527500 -25.759300   0.005973  -0.002726 -17.155700   0.000231  -0.001947   6.866460 -13.606700  17.480900  46.334200 -14.194900  54.848400 -13.569600 -18.747000  10.446400 -13.676000 -66.100300  20.914400 -51.923600  36.701100  72.881700  -4.396600  -0.000827   0.000000  -7.198310  -0.000895   0.000936  15.568100   5.703300  19.631300  13.545200   0.002512  -0.005012   9.481630   0.000868  -0.004038  16.859400   4.551210  14.673100  17.445600   0.004354  -0.003840  11.618800  -0.004415  -0.002756  16.637800   4.170360  13.677000  17.138300  -0.000333  -0.004672  11.414100   0.002977  -0.004190  15.800800   2.285000   8.031700  23.941500   0.005752  -0.000974  15.945100   0.002885  -0.001593  -0.858607  26.216200   5.419170   0.908688   1.318810  10.197700   1.313800  -4.086030   4.829280  -0.000000   0.000000   0.000000  -0.848865  10.028600  -3.518100  -1.562830  25.812800  -1.652060   1.734750 -11.674400   3.022660   0.000000   0.000000   0.000000
  3.658030  88.481800   2.964670  -5.421530 -22.853900  -8.937480   2.036960  11.921700  -0.780808   4.390710  23.805200  -2.075300  -0.703002  -3.268570  -0.035475  -1.164850  -6.624770  14.626400 -13.565100 -13.313200  -0.677319 -56.993400  -1.077790 -61.760300   3.727880 -28.965200 -17.267300  11.474100 -53.239600  -2.809680  37.953900  20.322200 -60.246200 -12.445700   0.006894   0.001573  -1.222900  -0.001609   0.001626 -19.353200   5.530960 -15.349400 -16.444900   0.000000   0.003439 -11.511400   0.000160   0.003145 -20.747500   3.050760  -7.996030 -20.960700   0.000851  -0.000397 -13.959800   0.000499   0.002445 -21.847100  -4.518680  11.128800 -22.287400  -0.004070  -0.003296 -14.843400  -0.001901  -0.003912 -16.847000  -3.523380  11.478800 -25.802400   0.005978  -0.002756 -17.184400   0.000233  -0.001980   6.747210 -13.542800  17.298700  46.274600 -14.565000  54.558600 -13.592400 -18.660400  10.291000 -13.792800 -66.099200  20.795300 -51.992600  36.739800  72.923400  -4.266890  -0.000830   0.000085  -7.133460  -0.000883   0.000923  15.615000   5.692960  19.530500  13.579200   0.002538  -0.005010   9.505440   0.000890  -0.004035  16.856300   4.550600  14.674100  17.442400   0.004445  -0.003840  11.616700  -0.004443  -0.002755  16.596100   4.164450  13.693300  17.096500  -0.000329  -0.004672  11.386300   0.003033  -0.004145  15.742700   2.283490   8.057110  23.854900   0.005841  -0.000975  15.887500   0.002932  -0.001608  -0.838107  26.153900   5.432700   0.909076   1.322670  10.182400   1.305020  -4.113530   4.891470  -0.000000   0.000000   0.000000  -0.810872   9.968590  -3.536710  -1.591360  25.782200  -1.575100   1.727220 -11.678600   3.016570   0.000000   0.000000   0.000000
